<svg id="visual" viewBox="0 0 960 540" width="960" height="540" xmlns="http://www.w3.org/2000/svg" xmlns:xlink="http://www.w3.org/1999/xlink" version="1.1"><rect x="0" y="0" width="960" height="540" fill="#002233"></rect><path d="M0 434L22.8 438.2C45.7 442.3 91.3 450.7 137 460.3C182.7 470 228.3 481 274 483.7C319.7 486.3 365.3 480.7 411.2 473C457 465.3 503 455.7 548.8 453.7C594.7 451.7 640.3 457.3 686 464.5C731.7 471.7 777.3 480.3 823 482.3C868.7 484.3 914.3 479.7 937.2 477.3L960 475L960 541L937.2 541C914.3 541 868.7 541 823 541C777.3 541 731.7 541 686 541C640.3 541 594.7 541 548.8 541C503 541 457 541 411.2 541C365.3 541 319.7 541 274 541C228.3 541 182.7 541 137 541C91.3 541 45.7 541 22.8 541L0 541Z" fill="#0066FF" stroke-linecap="round" stroke-linejoin="miter"></path></svg>